<?xml version="1.0" encoding="UTF-8" standalone="no"?><!DOCTYPE svg PUBLIC "-//W3C//DTD SVG 1.1//EN" "http://www.w3.org/Graphics/SVG/1.1/DTD/svg11.dtd"><svg width="100%" height="100%" viewBox="0 0 318 318" version="1.1" xmlns="http://www.w3.org/2000/svg" xmlns:xlink="http://www.w3.org/1999/xlink" xml:space="preserve" xmlns:serif="http://www.serif.com/" style="fill-rule:evenodd;clip-rule:evenodd;stroke-linejoin:round;stroke-miterlimit:2;"><rect x="52.811" y="52.811" width="212.377" height="212.377" style="fill:#f3ba3c;"/><path id="white-SQ" serif:id="white SQ" d="M159,0c87,0 159,71 159,159c0,87 -72,159 -159,159c-88,0 -159,-72 -159,-159c0,-88 71,-159 159,-159Zm-88,177c4,43 39,77 81,80c51,3 95,-37 95,-88c0,-27 -12,-52 -33,-69c-11,-9 -25,8 -13,17c15,13 24,32 24,52c0,39 -35,70 -74,66c-30,-4 -55,-29 -58,-59c-2,-23 6,-44 24,-59c11,-9 -2,-26 -14,-17c-23,19 -35,48 -32,77Zm77,-106l0,62c0,14 22,14 22,0l0,-62c0,-14 -22,-14 -22,0Z" style="fill:#fff;"/></svg>